<svg width="267" height="280" viewBox="0 0 267 280" fill="none" xmlns="http://www.w3.org/2000/svg">
<g clip-path="url(#clip0_4_10)">
<path d="M152.871 93.074C159.276 95.0153 164.376 92.0129 168.533 85.2143C172.211 79.186 178.034 74.8082 183.802 70.6661C193.287 63.8675 200.572 66.3747 204.234 77.4176C208.886 91.4077 207.566 105.06 202.057 118.421C200.605 121.911 200.007 125.697 200.313 129.464C201.177 141.914 201.012 154.316 197.814 166.499C196.756 170.956 194.963 175.206 192.509 179.074C189.704 183.279 184.926 183.004 183.142 178.288C182.081 175.506 180.651 174.924 177.971 174.924C167.441 174.924 158.655 170.499 151.417 163.135C145.971 157.633 143.936 150.669 144.863 142.936C145.052 141.364 145.461 140.106 143.441 139.061C138.247 136.373 136.148 131.476 136.368 125.99C136.761 116.056 137.72 106.145 138.419 96.2257C138.577 93.9149 139.897 93.0268 142.05 93.0347L152.871 93.074ZM195.826 95.4319C195.834 91.1161 195.613 86.803 195.166 82.5106C194.733 79.2881 193.303 78.5808 190.364 79.9955C182.892 83.5581 176.613 89.2124 172.29 96.2729C169.146 101.256 169.421 106.058 171.873 111.128C172.816 113.085 173.885 113.485 175.873 112.645C181.555 110.287 186.875 111.073 191.645 115.002C194.144 117.077 194.537 115.875 194.67 113.43C194.985 107.418 195.433 101.429 195.826 95.4319Z" fill="black"/>
<path d="M105.029 187.366C98.569 187.366 98.4983 187.319 96.2272 193.292C95.5121 195.171 94.5141 196.13 92.5023 195.917C92.2407 195.898 91.978 195.898 91.7165 195.917C84.1566 196.004 84.1566 196.004 82.2863 203.125C82.0946 203.886 81.8478 204.632 81.5476 205.357C81.0996 206.426 80.7617 207.715 79.19 207.542C77.9248 207.416 77.5083 206.324 77.2726 205.325C76.6659 203.187 76.2685 200.994 76.0859 198.778C75.9838 195.76 75.473 194.008 72.1095 196.114C71.6481 196.362 71.1444 196.522 70.6243 196.586C67.6616 197.12 66.2942 195.745 67.198 192.844C68.6675 188.089 70.1842 183.358 71.2137 178.485C71.7637 175.891 71.8973 174.091 68.2824 173.698C65.139 173.36 64.1253 170.287 65.7127 166.947C67.5359 163.111 70.3571 159.999 73.4062 157.107C74.8914 155.7 76.3767 154.796 72.9818 153.648C69.9013 152.603 69.2805 149.813 70.5221 146.81C72.6605 141.592 75.3923 136.636 78.6635 132.042C84.078 124.45 82.0034 116.323 80.911 108.172C80.7224 106.773 79.4886 106.443 78.4592 105.877C75.8266 104.431 73.1311 103.056 70.6007 101.413C66.2707 98.5836 66.4671 96.6973 71.1822 94.3394C84.3452 87.6351 99.1663 89.5843 110.648 99.7154C123.111 110.719 129.885 124.662 131.622 141.089C132.164 146.237 130.537 150.929 126.333 153.963C120.18 158.388 116.989 164.392 115.426 171.521C114.64 175.097 113.642 178.673 113.319 182.305C112.942 186.525 110.962 188.066 106.962 187.39C106.319 187.332 105.673 187.324 105.029 187.366Z" fill="black"/>
<path d="M91.8344 265.853C91.0486 267.888 90.5299 269.468 89.8619 270.993C89.8037 271.184 89.7035 271.36 89.5686 271.508C89.4338 271.655 89.2677 271.771 89.0825 271.846C88.8973 271.922 88.6976 271.955 88.498 271.943C88.2984 271.931 88.1039 271.875 87.9287 271.779C87.6228 271.648 87.3796 271.404 87.2505 271.097C87.1215 270.791 87.1167 270.446 87.2372 270.136C88.8089 265.161 90.467 260.186 92.1409 255.203C92.3403 254.724 92.7177 254.34 93.1939 254.134C94.8285 253.474 99.8815 256.209 100.73 258.292C101.87 261.113 101.1 263.88 98.4827 265.012C95.4572 266.316 96.0544 267.912 96.6674 270.215C97.0367 271.614 99.0799 273.862 96.8403 274.53C94.6006 275.198 94.577 272.25 93.8933 270.663C93.2804 269.256 93.4061 267.55 91.8344 265.853ZM95.245 263.22C96.8953 263.22 97.9719 262.434 98.1448 260.752C98.2144 260.398 98.2063 260.033 98.1212 259.683C98.0361 259.332 97.8759 259.004 97.6518 258.722C97.4276 258.439 97.1448 258.209 96.8229 258.046C96.5009 257.884 96.1476 257.793 95.7872 257.781C93.579 257.608 93.7126 259.659 93.3511 261.035C92.9896 262.41 93.8305 263.157 95.245 263.22Z" fill="black"/>
<path d="M190.851 21.2211C190.851 23.6968 190.851 26.1726 190.851 28.6484C190.851 29.513 191.087 30.629 189.712 30.6683C189.482 30.6715 189.254 30.6241 189.044 30.5294C188.834 30.4347 188.648 30.2951 188.498 30.1204C188.348 29.9457 188.238 29.7402 188.176 29.5185C188.114 29.2967 188.102 29.0641 188.14 28.8371C188.36 25.9997 186.977 24.695 184.407 23.7676C182.05 22.9187 180.069 22.0306 178.16 24.4514C178.02 24.6784 177.828 24.8689 177.6 25.0075C177.372 25.1461 177.115 25.2287 176.849 25.2487C176.583 25.2686 176.316 25.2253 176.07 25.1222C175.824 25.0192 175.605 24.8593 175.433 24.6557C174.608 23.6968 175.622 23.0131 176.266 22.4157C180.19 18.795 184.119 15.1848 188.054 11.5851C189.625 10.1547 190.537 10.2726 190.529 12.6305C190.529 15.4914 190.529 18.3523 190.529 21.2211H190.851ZM187.708 15.6328C185.955 17.7707 183.629 17.9907 184.101 20.3486C184.297 21.3547 186.026 21.8655 186.757 21.5119C189.052 20.3801 187.488 18.4466 187.708 15.6014V15.6328Z" fill="black"/>
<path d="M202.498 240.183L219.063 250.723C219.763 251.163 220.415 251.697 219.794 252.578C219.674 252.778 219.512 252.951 219.32 253.083C219.127 253.216 218.909 253.306 218.678 253.347C218.448 253.388 218.212 253.379 217.986 253.321C217.759 253.263 217.548 253.157 217.366 253.01C215.048 251.061 213.122 251.564 210.78 253.191C208.588 254.708 207.409 256.248 208.038 258.952C208.178 259.401 208.134 259.888 207.916 260.305C207.698 260.722 207.324 261.035 206.875 261.176C205.798 261.538 205.499 260.618 205.389 259.871C204.446 253.631 203.551 247.382 202.498 240.183ZM206.568 246.243C206.765 248.436 205.845 250.487 207.81 251.462C208.596 251.862 210.45 250.778 210.529 249.772C210.686 247.398 208.289 247.508 206.568 246.243Z" fill="black"/>
<path d="M81.7205 20.4744C81.7205 17.7314 81.7205 14.9726 81.7205 12.2375C81.7205 10.3512 82.5064 9.71453 84.078 11.1843C88.0859 14.936 92.0806 18.706 96.0622 22.4943C96.7066 23.1074 97.5946 23.8069 96.5416 24.7422C95.7558 25.4653 94.8913 25.0959 94.0426 24.5771C89.0918 21.5669 85.3983 23.1152 83.968 28.8056C83.6773 29.9924 83.1036 30.8413 81.9012 30.6055C80.6989 30.3697 81.0604 29.1829 81.1154 28.3105C81.249 25.7011 81.414 23.0917 81.5712 20.4508L81.7205 20.4744ZM85.4533 16.5053C83.8344 16.7411 84.1881 17.9907 84.2195 18.8632C84.2509 19.7356 83.4337 21.4568 85.3904 21.4333C86.4906 21.4333 88.0859 21.0953 88.1802 19.8613C88.3138 18.1479 86.5299 17.4799 85.4533 16.5053Z" fill="black"/>
<path d="M24.9351 220.966C24.2985 221.116 23.6699 221.288 23.0333 221.422C21.8781 221.674 20.8094 221.422 20.6129 220.164C20.4164 218.907 21.6424 218.868 22.4754 218.663C27.6777 217.421 32.88 216.195 38.0823 214.985C38.8053 214.812 39.7169 214.317 40.1334 215.252C40.3299 215.7 39.9605 216.486 39.6855 217.028C37.3279 221.556 35.0411 226.075 32.6128 230.555C32.1335 231.459 32.0077 233.322 30.4282 232.638C28.8486 231.954 29.5873 230.492 30.0274 229.227C31.2062 225.918 28.0077 220.856 24.9351 220.966ZM35.2926 218.86C33.1629 219.151 31.1118 218.412 30.4439 220.675C30.271 221.273 31.5126 222.986 32.1335 223.033C34.5774 223.057 34.3103 220.77 35.2926 218.86Z" fill="black"/>
<path d="M243.417 202.63C242.631 203.974 241.916 205.239 241.098 206.41C240.155 207.746 240.25 208.705 241.68 209.656C243.11 210.607 243.888 209.876 244.878 208.792C245.869 207.707 246.261 204.296 248.415 205.648C250.568 207 247.92 208.792 247.094 210.214C245.766 212.478 247.401 213.154 248.76 214.199C250.45 215.496 251.401 214.946 252.564 213.366C253.507 212.077 253.994 208.909 256.085 210.269C258.175 211.629 255.621 213.5 254.741 214.875C251.81 219.434 252.698 220.51 246.961 216.494C244.179 214.545 241.287 212.745 238.356 210.992C236.486 209.9 236.053 208.737 237.374 206.921C238.607 205.231 239.692 203.431 240.863 201.702C240.933 201.553 241.036 201.422 241.165 201.319C241.293 201.216 241.443 201.144 241.604 201.108C241.764 201.071 241.931 201.072 242.091 201.11C242.252 201.147 242.401 201.221 242.529 201.325C242.885 201.715 243.184 202.155 243.417 202.63Z" fill="black"/>
<path d="M116.848 275.041C117.367 270.396 117.862 266.772 118.145 263.125C118.325 260.909 119.292 260.147 121.445 260.524C123.119 260.815 124.816 260.893 126.506 261.105C127.551 261.231 128.785 261.349 128.549 262.827C128.361 264.053 127.26 263.896 126.349 263.809C125.304 263.715 124.266 263.613 123.205 263.471C121.728 263.275 120.997 263.896 120.903 265.381C120.816 266.678 121.029 267.582 122.592 267.935C124.337 268.328 127.7 267.299 127.433 269.641C127.103 272.573 123.999 270.388 122.152 270.553C120.306 270.718 120.046 271.795 120.109 273.194C120.172 274.593 119.253 276.204 121.437 276.707C121.702 276.71 121.966 276.745 122.223 276.809C123.795 277.556 127.166 276.133 126.695 278.884C126.317 281.037 123.315 279.387 121.492 279.473C117.642 279.654 115.818 278.074 116.848 275.041Z" fill="black"/>
<path d="M150.773 279.741C149.437 279.765 148.137 279.307 147.111 278.452C146.136 277.516 144.525 276.385 145.83 274.899C147.134 273.414 147.952 274.946 148.871 275.905C150.294 277.375 152.015 277.367 153.241 275.716C154.624 273.854 153.877 272.211 151.928 271.221C150.309 270.395 148.518 269.908 146.93 269.044C145.123 268.053 144.573 266.308 144.966 264.328C145.382 262.135 146.922 261.019 148.934 260.445C149.807 260.156 150.742 260.109 151.64 260.312C152.537 260.514 153.362 260.957 154.026 261.593C154.165 261.681 154.284 261.796 154.376 261.931C154.469 262.066 154.533 262.219 154.565 262.38C154.598 262.54 154.597 262.706 154.564 262.867C154.531 263.027 154.466 263.179 154.372 263.314C153.822 264.053 153.076 264.013 152.282 263.636C150.569 262.811 148.706 262.536 148.172 264.792C147.637 267.047 149.854 267.33 151.41 267.865C155.818 269.358 157.39 271.331 156.8 274.718C156.211 278.106 153.916 279.489 150.773 279.741Z" fill="black"/>
<path d="M215.331 25.2216C216.584 25.2594 217.79 25.7085 218.763 26.4997C219.735 27.2908 220.421 28.3801 220.714 29.5994C220.926 30.3854 221.028 31.25 220.109 31.6272C219.93 31.7109 219.736 31.7532 219.539 31.7509C219.342 31.7487 219.149 31.702 218.973 31.6143C218.796 31.5266 218.642 31.4002 218.522 31.2445C218.402 31.0889 218.318 30.908 218.277 30.7155C217.594 28.955 216.376 27.4066 214.49 28.5069C212.132 29.8588 213.924 31.7058 214.686 33.2227C216.745 37.3648 216.525 39.9742 213.837 41.9548C211.299 43.8254 207.983 43.4088 205.704 40.9724C204.868 40.1281 204.361 39.0133 204.274 37.8285C204.187 36.5474 204.014 34.8182 205.57 34.5196C207.441 34.1659 207.354 35.7535 207.378 37.1526C207.378 39.3926 208.722 40.7051 210.898 40.1707C213.075 39.6362 213.586 37.8128 212.729 35.8086C212.124 34.3702 211.213 33.042 210.702 31.5801C209.594 28.2947 211.621 25.3552 215.331 25.2216Z" fill="black"/>
<path d="M181.649 272.439C179.141 272.49 176.713 271.553 174.89 269.83C173.067 268.106 171.995 265.735 171.904 263.228C171.732 260.728 172.538 258.26 174.15 256.344C175.763 254.427 178.057 253.212 180.549 252.955C181.955 252.829 183.779 252.523 183.912 254.527C184.046 256.531 182.183 255.509 181.256 255.627C178.066 256.028 175.857 257.569 174.969 260.689C174.535 262.078 174.564 263.57 175.052 264.94C175.54 266.311 176.459 267.486 177.673 268.289C180.439 270.317 183.26 269.861 186.034 268.022C186.702 267.574 187.118 265.664 188.392 267.149C189.319 268.25 188.706 269.35 187.724 270.199C186.024 271.635 183.874 272.428 181.649 272.439Z" fill="black"/>
<path d="M59.2452 23.8069C60.3319 23.8217 61.3916 24.1469 62.2995 24.7444C63.2073 25.3418 63.9254 26.1864 64.369 27.1787C65.4534 29.3479 65.0762 31.5015 63.3945 32.8848C60.8641 34.9597 61.422 36.6338 63.1745 38.7324C63.9053 39.6048 65.4299 40.823 63.9132 42.0255C62.0193 43.5346 61.5556 41.2396 60.7698 40.32C58.648 37.522 56.6205 34.6532 54.7187 31.6744C53.8543 30.3461 51.6697 29.0807 52.8091 27.383C53.545 26.3422 54.5056 25.4804 55.6197 24.8613C56.7338 24.2423 57.9729 23.8819 59.2452 23.8069ZM59.3002 26.6678C58.1293 26.9429 56.5498 27.2101 56.6755 28.5541C56.8327 30.126 57.6657 32.0674 59.5517 32.2324C60.8719 32.3503 61.8307 31.0142 61.9093 29.5366C61.9721 27.8074 60.9348 26.9272 59.3002 26.6678Z" fill="black"/>
<path d="M113.972 1.40688C115.543 1.19467 116.416 1.16323 116.699 2.12211C117.037 3.30891 116.211 3.76477 115.229 3.92983C113.021 4.31495 113.131 5.71397 113.477 7.44309C114.16 10.8856 114.726 14.3517 115.3 17.8178C115.473 18.8317 115.771 20.0735 114.349 20.3801C112.927 20.6866 112.683 19.4133 112.487 18.4152C111.842 15.0984 111.19 11.7816 110.671 8.44127C110.365 6.47635 110.074 4.74723 107.394 5.39172C107.207 5.45751 107.008 5.47926 106.811 5.4553C106.614 5.43134 106.425 5.3623 106.26 5.25356C106.094 5.14482 105.955 4.9993 105.855 4.82833C105.755 4.65736 105.695 4.46554 105.681 4.26779C105.54 3.30891 106.278 2.90021 107.096 2.69586C109.642 2.22428 112.196 1.74484 113.972 1.40688Z" fill="black"/>
<path d="M157.594 1.3833C159.818 1.78414 162.136 2.16926 164.447 2.62512C165.343 2.79804 166.38 3.00239 166.301 4.19705C166.223 5.39172 165.24 5.56463 164.282 5.35242C162.294 4.89656 161.83 6.02835 161.547 7.66316C160.989 11.1607 160.203 14.6111 159.551 18.0772C159.339 19.1461 159.622 20.7338 157.767 20.4351C156.077 20.1679 156.423 18.8632 156.651 17.6606C157.272 14.4539 157.885 11.255 158.474 8.04042C158.812 6.24056 159.417 4.32281 156.604 3.85909C156.403 3.85381 156.206 3.79976 156.031 3.70159C155.855 3.60341 155.706 3.46404 155.596 3.29548C155.486 3.12691 155.419 2.9342 155.4 2.73391C155.382 2.53362 155.412 2.33176 155.488 2.14568C155.842 1.17895 156.745 1.40688 157.594 1.3833Z" fill="black"/>
<path d="M223.802 228.299C223.566 228.409 223.33 228.511 223.11 228.637C222.12 229.195 221.389 231.333 220.022 229.722C218.655 228.111 220.706 227.262 221.547 226.287C222.827 224.81 224.258 223.45 225.649 222.074C226.199 221.524 226.812 220.864 227.668 221.43C228.698 222.114 228.454 223.002 227.755 223.749C226.01 225.509 227.087 226.719 228.423 228.001C230.882 230.358 233.295 232.716 235.692 235.153C236.533 236.002 237.507 237.008 236.171 238.108C235.016 239.059 234.285 237.888 233.57 237.204C231.024 234.752 228.533 232.253 225.987 229.8C225.35 229.195 224.855 228.323 223.802 228.299Z" fill="black"/>
<path d="M50.5301 251.108C48.4836 250.127 46.6719 248.717 45.2178 246.974C43.8033 245.402 45.6264 244.388 46.4201 243.374C48.9899 240.089 51.6696 236.89 54.3258 233.667C55.0409 232.811 55.6774 231.435 57.0841 232.669C58.4908 233.903 57.2177 234.76 56.534 235.624C54.6008 238.077 52.7148 240.592 50.6008 242.887C48.8091 244.828 47.929 246.431 50.758 248.137C51.426 248.546 51.9997 249.222 51.5439 250.102C51.3946 250.503 50.8995 250.762 50.5301 251.108Z" fill="black"/>
<path d="M137.414 9.28225C137.414 11.7659 137.414 14.2417 137.414 16.7253C137.414 17.7549 137.021 18.5566 135.842 18.4702C134.891 18.3994 134.553 17.6842 134.553 16.8275C134.553 11.7345 134.553 6.60997 134.632 1.55621C134.608 1.35875 134.627 1.15858 134.687 0.968904C134.746 0.779231 134.846 0.604363 134.978 0.45583C135.11 0.307296 135.272 0.188472 135.454 0.107192C135.635 0.025912 135.832 -0.015979 136.031 -0.0157167C137.335 -0.0707343 137.461 0.896003 137.476 1.8313C137.476 4.30709 137.476 6.79074 137.476 9.26653L137.414 9.28225Z" fill="black"/>
<path d="M2.87627 139.053C1.21027 138.856 0.0786453 138.055 6.0406e-05 136.381C-0.086383 134.471 1.09239 133.496 2.9077 133.528C4.56584 133.528 5.501 134.557 5.46171 136.286C5.42242 138.015 4.43225 138.825 2.87627 139.053Z" fill="black"/>
<path d="M264.202 139.045C262.631 138.77 261.585 137.898 261.578 136.239C261.578 134.353 262.709 133.378 264.556 133.52C264.915 133.521 265.27 133.599 265.596 133.751C265.921 133.903 266.21 134.123 266.442 134.398C266.674 134.672 266.843 134.994 266.938 135.34C267.033 135.687 267.051 136.05 266.992 136.404C266.89 138.063 265.876 138.927 264.202 139.045Z" fill="black"/>
</g>
<defs>
<clipPath id="clip0_4_10">
<rect width="267" height="280" fill="white"/>
</clipPath>
</defs>
</svg>
